<?xml version="1.0" encoding="utf-8"?>
<!-- Generator: Adobe Illustrator 26.4.1, SVG Export Plug-In . SVG Version: 6.00 Build 0)  -->
<svg version="1.1" id="Vrstva_1" xmlns="http://www.w3.org/2000/svg" xmlns:xlink="http://www.w3.org/1999/xlink" x="0px" y="0px"
	 viewBox="0 0 312 182" style="enable-background:new 0 0 312 182;" xml:space="preserve">
<style type="text/css">
	.st0{fill:none;stroke:#BECD00;stroke-width:4.4588;}
	.st1{fill:#BECD00;}
</style>
<path d="M21,171.2c0.8-0.2,1.3-0.5,1.3-1.5v-1.1c0-1-0.5-1.6-1.5-1.5c-0.6,0.1-1.2,0.2-1.8,0.2c-2.4,0-3.5-0.8-3.5-3.5V148h5.2
	c1,0,1.5-0.5,1.5-1.5v-1.1c0-1-0.5-1.5-1.5-1.5h-5.2v-5.2c0-1-0.5-1.5-1.5-1.5h-1.5c-1,0-1.5,0.5-1.5,1.5v25.4
	c0,5.3,2.6,7.3,7.3,7.3C19.2,171.4,20,171.4,21,171.2z M40,163.7c0,2.4-1.7,4-4.1,4s-4.4-1.3-4.4-5.2v-3.9h11.7c1,0,1.5-0.5,1.5-1.4
	v-4.8c0-6-3.8-9-8.8-9s-8.8,3-8.8,9v10.4c0,6,3.8,9,8.8,9c5.1,0,8.5-3.2,8.5-7.9c0-1-0.5-1.5-1.5-1.5h-1.6
	C40.5,162.4,40,162.9,40,163.7z M31.5,154.8v-2.2c0-3.9,2-5.2,4.4-5.2s4.4,1.3,4.4,5.2v2.2H31.5z M55.1,162.5v-9.9
	c0-3.9,2-5.2,4.4-5.2c2.4,0,4.1,1.7,4.1,4.4c0,0.9,0.5,1.3,1.3,1.3h1.6c1,0,1.5-0.5,1.5-1.5c0-5.1-3.6-8.3-8.5-8.3c-5,0-8.8,3-8.8,9
	v10.4c0,6,3.8,9,8.8,9c4.9,0,8.5-3.2,8.5-8.3c0-1-0.5-1.5-1.5-1.5h-1.6c-0.8,0-1.3,0.5-1.3,1.3c0,2.7-1.8,4.4-4.1,4.4
	C57,167.7,55.1,166.4,55.1,162.5z M78.9,169.8v-17.1c0-3.9,2-5.2,4.4-5.2c2.4,0,4.4,1.3,4.4,5.2v17.1c0,0.9,0.5,1.5,1.5,1.5h1.5
	c1,0,1.5-0.5,1.5-1.5v-17.9c0-5.8-3.3-8.6-7.6-8.6c-2.4,0-4.4,0.9-5.6,2.7v-10.1c0-1-0.5-1.5-1.5-1.5H76c-1,0-1.5,0.5-1.5,1.5v33.8
	c0,0.9,0.5,1.5,1.5,1.5h1.5C78.4,171.2,78.9,170.7,78.9,169.8z M116.8,169.8v-17.4c0-6-3.8-9-8.8-9s-8.8,3-8.8,9v17.4
	c0,0.9,0.5,1.5,1.5,1.5h1.5c1,0,1.5-0.5,1.5-1.5v-17.1c0-3.9,2-5.2,4.4-5.2c2.4,0,4.4,1.3,4.4,5.2v17.1c0,0.9,0.5,1.5,1.5,1.5h1.5
	C116.3,171.2,116.8,170.7,116.8,169.8z"/>
<path d="M21,171.2l0-0.2h0L21,171.2z M20.8,167.1l0-0.2h0L20.8,167.1z M15.5,148v-0.2h-0.2v0.2H15.5z M15.5,143.9h-0.2v0.2h0.2
	V143.9z M21,171.4c0.4-0.1,0.8-0.2,1-0.5c0.3-0.3,0.4-0.7,0.4-1.2h-0.3c0,0.5-0.1,0.8-0.3,0.9c-0.2,0.2-0.5,0.3-0.8,0.4L21,171.4z
	 M22.4,169.7v-1.1h-0.3v1.1H22.4z M22.4,168.6c0-0.5-0.1-1-0.4-1.3c-0.3-0.3-0.7-0.4-1.3-0.3l0.1,0.3c0.5-0.1,0.8,0,1,0.2
	c0.2,0.2,0.3,0.6,0.3,1H22.4z M20.7,166.9c-0.6,0.1-1.2,0.2-1.7,0.2v0.3c0.6,0,1.2-0.1,1.8-0.2L20.7,166.9z M19,167.2
	c-1.2,0-2-0.2-2.5-0.7c-0.5-0.5-0.8-1.3-0.8-2.6h-0.3c0,1.3,0.3,2.3,0.9,2.9c0.6,0.6,1.5,0.8,2.8,0.8V167.2z M15.7,163.9V148h-0.3
	v15.9H15.7z M15.5,148.2h5.2v-0.3h-5.2V148.2z M20.8,148.2c0.5,0,0.9-0.1,1.2-0.4c0.3-0.3,0.4-0.7,0.4-1.2h-0.3c0,0.5-0.1,0.8-0.3,1
	c-0.2,0.2-0.5,0.3-1,0.3V148.2z M22.4,146.5v-1.1h-0.3v1.1H22.4z M22.4,145.4c0-0.5-0.1-0.9-0.4-1.2c-0.3-0.3-0.7-0.4-1.2-0.4v0.3
	c0.5,0,0.8,0.1,1,0.3c0.2,0.2,0.3,0.5,0.3,1H22.4z M20.8,143.7h-5.2v0.3h5.2V143.7z M15.7,143.9v-5.2h-0.3v5.2H15.7z M15.7,138.7
	c0-0.5-0.1-0.9-0.4-1.2c-0.3-0.3-0.7-0.4-1.2-0.4v0.3c0.5,0,0.8,0.1,1,0.3c0.2,0.2,0.3,0.5,0.3,1H15.7z M14,137h-1.5v0.3H14V137z
	 M12.6,137c-0.5,0-0.9,0.1-1.2,0.4c-0.3,0.3-0.4,0.7-0.4,1.2h0.3c0-0.5,0.1-0.8,0.3-1c0.2-0.2,0.5-0.3,1-0.3V137z M10.9,138.7v25.4
	h0.3v-25.4H10.9z M10.9,164.2c0,2.7,0.7,4.6,2,5.8c1.3,1.2,3.2,1.7,5.5,1.7v-0.3c-2.3,0-4.1-0.5-5.3-1.6c-1.2-1.1-1.8-2.9-1.8-5.5
	H10.9z M18.4,171.6c0.8,0,1.6,0,2.6-0.2l-0.1-0.3c-1,0.2-1.7,0.2-2.5,0.2V171.6z M31.5,158.6v-0.2h-0.2v0.2H31.5z M31.5,154.8h-0.2
	v0.2h0.2V154.8z M40.3,154.8v0.2h0.2v-0.2H40.3z M39.9,163.7c0,1.2-0.4,2.1-1.1,2.8c-0.7,0.7-1.7,1-2.9,1v0.3c1.3,0,2.3-0.4,3.1-1.1
	c0.8-0.7,1.2-1.8,1.2-3H39.9z M35.9,167.5c-1.2,0-2.2-0.3-3-1.1c-0.8-0.8-1.2-2-1.2-3.9h-0.3c0,2,0.5,3.3,1.3,4.2
	c0.8,0.9,2,1.2,3.2,1.2V167.5z M31.7,162.5v-3.9h-0.3v3.9H31.7z M31.5,158.8h11.7v-0.3H31.5V158.8z M43.2,158.8
	c0.5,0,0.9-0.1,1.2-0.4c0.3-0.3,0.4-0.7,0.4-1.2h-0.3c0,0.5-0.1,0.8-0.3,1c-0.2,0.2-0.5,0.3-1,0.3V158.8z M44.9,157.2v-4.8h-0.3v4.8
	H44.9z M44.9,152.3c0-3-1-5.3-2.6-6.9c-1.6-1.5-3.9-2.3-6.4-2.3v0.3c2.5,0,4.6,0.7,6.2,2.2c1.5,1.5,2.5,3.7,2.5,6.6H44.9z
	 M35.9,143.2c-2.5,0-4.8,0.8-6.4,2.3c-1.6,1.5-2.6,3.8-2.6,6.9h0.3c0-3,0.9-5.2,2.5-6.6c1.5-1.5,3.7-2.2,6.2-2.2V143.2z M26.9,152.3
	v10.4h0.3v-10.4H26.9z M26.9,162.8c0,3,1,5.3,2.6,6.9c1.6,1.5,3.9,2.3,6.4,2.3v-0.3c-2.5,0-4.6-0.7-6.2-2.2
	c-1.5-1.5-2.5-3.7-2.5-6.6H26.9z M35.9,172c2.6,0,4.8-0.8,6.3-2.2c1.5-1.4,2.4-3.5,2.4-5.9h-0.3c0,2.3-0.9,4.3-2.3,5.6
	c-1.5,1.4-3.6,2.1-6.1,2.1V172z M44.6,163.9c0-0.5-0.1-0.9-0.4-1.2c-0.3-0.3-0.7-0.4-1.2-0.4v0.3c0.5,0,0.8,0.1,1,0.3
	c0.2,0.2,0.3,0.5,0.3,1H44.6z M43,162.2h-1.6v0.3H43V162.2z M41.3,162.2c-0.4,0-0.8,0.1-1.1,0.4c-0.3,0.3-0.4,0.6-0.4,1.1h0.3
	c0-0.4,0.1-0.7,0.3-0.8s0.5-0.3,0.8-0.3V162.2z M31.7,154.8v-2.2h-0.3v2.2H31.7z M31.7,152.6c0-1.9,0.5-3.2,1.2-3.9
	c0.8-0.8,1.8-1.1,3-1.1v-0.3c-1.2,0-2.4,0.3-3.2,1.2c-0.8,0.9-1.3,2.2-1.3,4.2H31.7z M35.9,147.6c1.2,0,2.2,0.3,3,1.1
	c0.8,0.8,1.2,2,1.2,3.9h0.3c0-2-0.5-3.3-1.3-4.2c-0.8-0.9-2-1.2-3.2-1.2V147.6z M40.1,152.6v2.2h0.3v-2.2H40.1z M40.3,154.6h-8.8
	v0.3h8.8V154.6z M55.3,162.5v-9.9h-0.3v9.9H55.3z M55.3,152.6c0-1.9,0.5-3.2,1.2-3.9c0.8-0.8,1.8-1.1,3-1.1v-0.3
	c-1.2,0-2.4,0.3-3.2,1.2c-0.8,0.9-1.3,2.2-1.3,4.2H55.3z M59.5,147.6c1.2,0,2.1,0.4,2.8,1.1c0.7,0.7,1.1,1.8,1.1,3.1h0.3
	c0-1.4-0.5-2.5-1.2-3.3c-0.8-0.8-1.9-1.2-3.1-1.2V147.6z M63.5,151.8c0,0.5,0.1,0.8,0.4,1.1c0.3,0.3,0.6,0.4,1.1,0.4v-0.3
	c-0.4,0-0.7-0.1-0.8-0.3c-0.2-0.2-0.3-0.4-0.3-0.9H63.5z M64.9,153.2h1.6v-0.3h-1.6V153.2z M66.5,153.2c0.5,0,0.9-0.1,1.2-0.4
	c0.3-0.3,0.4-0.7,0.4-1.2h-0.3c0,0.5-0.1,0.8-0.3,1c-0.2,0.2-0.5,0.3-1,0.3V153.2z M68.2,151.6c0-2.6-0.9-4.7-2.5-6.2
	c-1.6-1.5-3.7-2.3-6.2-2.3v0.3c2.4,0,4.5,0.8,6,2.2c1.5,1.4,2.4,3.4,2.4,5.9H68.2z M59.5,143.2c-2.5,0-4.8,0.8-6.4,2.3
	c-1.6,1.5-2.6,3.8-2.6,6.9h0.3c0-3,0.9-5.2,2.5-6.6c1.5-1.5,3.7-2.2,6.2-2.2V143.2z M50.5,152.3v10.4h0.3v-10.4H50.5z M50.5,162.8
	c0,3,1,5.3,2.6,6.9c1.6,1.5,3.9,2.3,6.4,2.3v-0.3c-2.5,0-4.6-0.7-6.2-2.2c-1.5-1.5-2.5-3.7-2.5-6.6H50.5z M59.5,172
	c2.5,0,4.7-0.8,6.2-2.3c1.6-1.5,2.5-3.6,2.5-6.2h-0.3c0,2.5-0.9,4.5-2.4,5.9c-1.5,1.4-3.6,2.2-6,2.2V172z M68.2,163.5
	c0-0.5-0.1-0.9-0.4-1.2c-0.3-0.3-0.7-0.4-1.2-0.4v0.3c0.5,0,0.8,0.1,1,0.3c0.2,0.2,0.3,0.5,0.3,1H68.2z M66.5,161.9h-1.6v0.3h1.6
	V161.9z M64.9,161.9c-0.4,0-0.8,0.1-1.1,0.4c-0.3,0.3-0.4,0.6-0.4,1.1h0.3c0-0.4,0.1-0.7,0.3-0.8c0.2-0.2,0.5-0.3,0.8-0.3V161.9z
	 M63.5,163.3c0,1.3-0.4,2.4-1.1,3.1c-0.7,0.7-1.7,1.1-2.8,1.1v0.3c1.2,0,2.3-0.4,3.1-1.2c0.8-0.8,1.2-1.9,1.2-3.3H63.5z M59.5,167.5
	c-1.2,0-2.2-0.3-3-1.1c-0.8-0.8-1.2-2-1.2-3.9h-0.3c0,2,0.5,3.3,1.3,4.2c0.8,0.9,2,1.2,3.2,1.2V167.5z M78.9,146h-0.2v0.6l0.3-0.5
	L78.9,146z M79.1,169.8v-17.1h-0.3v17.1H79.1z M79.1,152.6c0-1.9,0.5-3.2,1.2-3.9c0.8-0.8,1.8-1.1,3-1.1v-0.3
	c-1.2,0-2.4,0.3-3.2,1.2c-0.8,0.9-1.3,2.2-1.3,4.2H79.1z M83.3,147.6c1.2,0,2.2,0.3,3,1.1c0.8,0.8,1.2,2,1.2,3.9h0.3
	c0-2-0.5-3.3-1.3-4.2c-0.8-0.9-2-1.2-3.2-1.2V147.6z M87.5,152.6v17.1h0.3v-17.1H87.5z M87.5,169.8c0,0.5,0.1,0.9,0.4,1.2
	c0.3,0.3,0.7,0.4,1.2,0.4V171c-0.5,0-0.8-0.1-1-0.3c-0.2-0.2-0.3-0.5-0.3-1H87.5z M89.2,171.4h1.5V171h-1.5V171.4z M90.6,171.4
	c0.5,0,0.9-0.1,1.2-0.4c0.3-0.3,0.4-0.7,0.4-1.2h-0.3c0,0.4-0.1,0.8-0.3,1c-0.2,0.2-0.5,0.3-1,0.3V171.4z M92.3,169.8v-17.9h-0.3
	v17.9H92.3z M92.3,151.9c0-2.9-0.8-5.1-2.2-6.6c-1.4-1.5-3.3-2.2-5.5-2.2v0.3c2.1,0,4,0.7,5.3,2.1c1.3,1.4,2.1,3.5,2.1,6.3H92.3z
	 M84.5,143.2c-2.4,0-4.5,0.9-5.8,2.8l0.3,0.2c1.2-1.8,3.2-2.6,5.5-2.6V143.2z M79.1,146v-10.1h-0.3V146H79.1z M79.1,135.9
	c0-0.5-0.1-0.9-0.4-1.2c-0.3-0.3-0.7-0.4-1.2-0.4v0.3c0.5,0,0.8,0.1,1,0.3c0.2,0.2,0.3,0.5,0.3,1H79.1z M77.4,134.2H76v0.3h1.5
	V134.2z M76,134.2c-0.5,0-0.9,0.1-1.2,0.4c-0.3,0.3-0.4,0.7-0.4,1.2h0.3c0-0.5,0.1-0.8,0.3-1c0.2-0.2,0.5-0.3,1-0.3V134.2z
	 M74.3,135.9v33.8h0.3v-33.8H74.3z M74.3,169.8c0,0.5,0.1,0.9,0.4,1.2c0.3,0.3,0.7,0.4,1.2,0.4V171c-0.5,0-0.8-0.1-1-0.3
	c-0.2-0.2-0.3-0.5-0.3-1H74.3z M76,171.4h1.5V171H76V171.4z M77.4,171.4c0.5,0,0.9-0.1,1.2-0.4c0.3-0.3,0.4-0.7,0.4-1.2h-0.3
	c0,0.4-0.1,0.8-0.3,1c-0.2,0.2-0.5,0.3-1,0.3V171.4z M116.9,169.8v-17.4h-0.3v17.4H116.9z M116.9,152.3c0-3-1-5.3-2.6-6.9
	c-1.6-1.5-3.9-2.3-6.4-2.3v0.3c2.5,0,4.6,0.7,6.2,2.2c1.5,1.5,2.5,3.7,2.5,6.6H116.9z M108,143.2c-2.5,0-4.8,0.8-6.4,2.3
	c-1.6,1.5-2.6,3.8-2.6,6.9h0.3c0-3,0.9-5.2,2.5-6.6c1.5-1.5,3.7-2.2,6.2-2.2V143.2z M99,152.3v17.4h0.3v-17.4H99z M99,169.8
	c0,0.5,0.1,0.9,0.4,1.2c0.3,0.3,0.7,0.4,1.2,0.4V171c-0.5,0-0.8-0.1-1-0.3c-0.2-0.2-0.3-0.5-0.3-1H99z M100.6,171.4h1.5V171h-1.5
	V171.4z M102.1,171.4c0.5,0,0.9-0.1,1.2-0.4c0.3-0.3,0.4-0.7,0.4-1.2h-0.3c0,0.4-0.1,0.7-0.3,1c-0.2,0.2-0.5,0.3-1,0.3V171.4z
	 M103.7,169.8v-17.1h-0.3v17.1H103.7z M103.7,152.6c0-1.9,0.5-3.2,1.2-3.9c0.8-0.8,1.8-1.1,3-1.1v-0.3c-1.2,0-2.4,0.3-3.2,1.2
	c-0.8,0.9-1.3,2.2-1.3,4.2H103.7z M108,147.6c1.2,0,2.2,0.3,3,1.1c0.8,0.8,1.2,2,1.2,3.9h0.3c0-2-0.5-3.3-1.3-4.2
	c-0.8-0.9-2-1.2-3.2-1.2V147.6z M112.2,152.6v17.1h0.3v-17.1H112.2z M112.2,169.8c0,0.5,0.1,0.9,0.4,1.2c0.3,0.3,0.7,0.4,1.2,0.4
	V171c-0.5,0-0.8-0.1-1-0.3c-0.2-0.2-0.3-0.5-0.3-1H112.2z M113.8,171.4h1.5V171h-1.5V171.4z M115.3,171.4c0.5,0,0.9-0.1,1.2-0.4
	c0.3-0.3,0.4-0.7,0.4-1.2h-0.3c0,0.4-0.1,0.7-0.3,1c-0.2,0.2-0.5,0.3-1,0.3V171.4z"/>
<path class="st0" d="M137.4,145.3h31.1c6.5,0,11.8,5.3,11.8,11.8v0c0,6.5-5.3,11.8-11.8,11.8h-31.1c-6.5,0-11.8-5.3-11.8-11.8v0
	C125.6,150.6,130.8,145.3,137.4,145.3z"/>
<circle class="st1" cx="137.6" cy="157.1" r="8.5"/>
<path d="M195.1,167.3c-1.5,0-2.6-0.8-2.6-3.1v-28.3c0-1-0.5-1.5-1.5-1.5h-1.4c-1,0-1.5,0.5-1.5,1.5v28.7c0,5.1,2.6,6.8,6.3,6.8
	c0.9,0,1.6-0.1,2.4-0.2c0.8-0.2,1.3-0.5,1.3-1.5v-1.1c0-1-0.5-1.6-1.5-1.5C196.1,167.2,195.7,167.3,195.1,167.3z M219.6,162.8v-10.4
	c0-6-3.8-9-8.8-9s-8.8,3-8.8,9v10.4c0,6.1,3.8,9,8.8,9S219.6,168.9,219.6,162.8z M215.2,152.6v9.9c0,3.9-2,5.2-4.4,5.2
	c-2.4,0-4.4-1.3-4.4-5.2v-9.9c0-3.9,2-5.2,4.4-5.2C213.2,147.4,215.2,148.7,215.2,152.6z M238.8,166.6v5.1c0,3.9-2,4.9-4.4,4.9
	c-2.6,0-4.1-1.5-4.1-3.6c0-0.8-0.5-1.3-1.3-1.3h-1.6c-1,0-1.5,0.5-1.5,1.5c0,4.1,3.3,7.4,8.6,7.4c5,0,8.8-2.8,8.8-8.8v-19.4
	c0-6-3.8-9-8.8-9c-5,0-8.8,3-8.8,9v8.3c0,5.8,3.3,8.5,7.6,8.5C235.4,169.2,237.5,168.4,238.8,166.6z M238.8,152.6v7.3
	c0,3.9-2,5.2-4.4,5.2c-2.4,0-4.4-1.3-4.4-5.2v-7.3c0-3.9,2-5.2,4.4-5.2C236.8,147.4,238.8,148.7,238.8,152.6z M252.7,140.3
	c1.5,0,2.7-1.2,2.7-2.8c0-1.5-1.2-2.7-2.7-2.7c-1.6,0-2.8,1.2-2.8,2.7C249.9,139.1,251.2,140.3,252.7,140.3z M250.5,145.4v24.4
	c0,0.9,0.5,1.5,1.5,1.5h1.4c1,0,1.5-0.5,1.5-1.5v-24.4c0-1-0.5-1.5-1.5-1.5H252C251,143.9,250.5,144.4,250.5,145.4z M274.8,163.7
	c0,2.4-1.7,4-4.1,4c-2.4,0-4.4-1.3-4.4-5.2v-3.9h11.7c1,0,1.5-0.5,1.5-1.4v-4.8c0-6-3.8-9-8.8-9s-8.8,3-8.8,9v10.4c0,6,3.8,9,8.8,9
	c5.1,0,8.5-3.2,8.5-7.9c0-1-0.5-1.5-1.5-1.5h-1.6C275.2,162.4,274.8,162.9,274.8,163.7z M266.2,154.8v-2.2c0-3.9,2-5.2,4.4-5.2
	c2.4,0,4.4,1.3,4.4,5.2v2.2H266.2z M297.3,150.8L297.3,150.8c0,0.9,0.5,1.3,1.3,1.3h1.6c1,0,1.5-0.5,1.5-1.5v-0.1
	c0-4.2-3.4-7.3-8.3-7.3c-4.8,0-8.2,2.8-8.2,7.6c0,10.1,12.5,7,12.5,13.1v0.1c0,2.6-1.8,3.6-4.2,3.6c-2.3,0-4.1-1.1-4.1-3.6
	c0-0.8-0.4-1.3-1.3-1.3h-1.6c-1,0-1.4,0.5-1.4,1.5v0.3c0,4.2,3.5,7.3,8.5,7.3s8.6-2.7,8.6-7.5c0-10.2-12.5-7.2-12.5-13.2V151
	c0-2.4,1.6-3.5,3.8-3.5C295.7,147.4,297.3,148.6,297.3,150.8z"/>
<path d="M196.8,171.2l0,0.2h0L196.8,171.2z M196.7,167.1l0,0.2l0,0L196.7,167.1z M195.1,167.2c-0.7,0-1.3-0.2-1.7-0.6
	c-0.4-0.4-0.7-1.1-0.7-2.3h-0.3c0,1.2,0.3,2,0.8,2.5c0.5,0.5,1.2,0.7,2,0.7V167.2z M192.6,164.3v-28.3h-0.3v28.3H192.6z
	 M192.6,135.9c0-0.5-0.1-0.9-0.4-1.2c-0.3-0.3-0.7-0.4-1.2-0.4v0.3c0.5,0,0.8,0.1,1,0.3c0.2,0.2,0.3,0.5,0.3,1H192.6z M191,134.2
	h-1.4v0.3h1.4V134.2z M189.6,134.2c-0.5,0-0.9,0.1-1.2,0.4c-0.3,0.3-0.4,0.7-0.4,1.2h0.3c0-0.5,0.1-0.8,0.3-1c0.2-0.2,0.5-0.3,1-0.3
	V134.2z M187.9,135.9v28.7h0.3v-28.7H187.9z M187.9,164.6c0,2.6,0.7,4.3,1.8,5.4c1.2,1.1,2.8,1.5,4.7,1.5v-0.3
	c-1.8,0-3.4-0.4-4.4-1.4c-1.1-1-1.7-2.7-1.7-5.2H187.9z M194.4,171.6c0.9,0,1.6-0.1,2.5-0.2l-0.1-0.3c-0.9,0.2-1.5,0.2-2.4,0.2
	V171.6z M196.9,171.4c0.4-0.1,0.8-0.2,1.1-0.5c0.3-0.3,0.4-0.7,0.4-1.2H198c0,0.5-0.1,0.7-0.3,0.9c-0.2,0.2-0.5,0.3-0.9,0.4
	L196.9,171.4z M198.3,169.7v-1.1H198v1.1H198.3z M198.3,168.6c0-0.5-0.1-1-0.4-1.3c-0.3-0.3-0.7-0.4-1.2-0.3l0.1,0.3
	c0.4-0.1,0.7,0,0.9,0.2c0.2,0.2,0.3,0.6,0.3,1H198.3z M196.7,166.9c-0.6,0.1-1,0.2-1.6,0.2v0.3c0.7,0,1.1-0.1,1.7-0.2L196.7,166.9z
	 M219.8,162.8v-10.4h-0.3v10.4H219.8z M219.8,152.3c0-3-1-5.3-2.6-6.9c-1.6-1.5-3.9-2.3-6.4-2.3v0.3c2.5,0,4.6,0.7,6.2,2.2
	c1.5,1.5,2.5,3.7,2.5,6.6H219.8z M210.8,143.2c-2.5,0-4.8,0.8-6.4,2.3c-1.6,1.5-2.6,3.8-2.6,6.9h0.3c0-3,0.9-5.2,2.5-6.6
	c1.5-1.5,3.7-2.2,6.2-2.2V143.2z M201.8,152.3v10.4h0.3v-10.4H201.8z M201.8,162.8c0,3.1,1,5.4,2.6,6.9c1.6,1.5,3.9,2.3,6.4,2.3
	v-0.3c-2.5,0-4.6-0.7-6.2-2.2c-1.5-1.4-2.5-3.7-2.5-6.7H201.8z M210.8,172c2.5,0,4.8-0.7,6.4-2.3c1.6-1.5,2.6-3.8,2.6-6.9h-0.3
	c0,3-0.9,5.2-2.5,6.7c-1.5,1.5-3.7,2.2-6.2,2.2V172z M215,152.6v9.9h0.3v-9.9H215z M215,162.5c0,1.9-0.5,3.2-1.2,3.9s-1.8,1.1-3,1.1
	v0.3c1.2,0,2.4-0.3,3.2-1.2c0.8-0.9,1.3-2.2,1.3-4.2H215z M210.8,167.5c-1.2,0-2.2-0.3-3-1.1c-0.8-0.8-1.2-2-1.2-3.9h-0.3
	c0,2,0.5,3.3,1.3,4.2c0.8,0.9,2,1.2,3.2,1.2V167.5z M206.5,162.5v-9.9h-0.3v9.9H206.5z M206.5,152.6c0-1.9,0.5-3.2,1.2-3.9
	c0.8-0.8,1.8-1.1,3-1.1v-0.3c-1.2,0-2.4,0.3-3.2,1.2c-0.8,0.9-1.3,2.2-1.3,4.2H206.5z M210.8,147.6c1.2,0,2.2,0.3,3,1.1
	c0.8,0.8,1.2,2,1.2,3.9h0.3c0-2-0.5-3.3-1.3-4.2c-0.8-0.9-2-1.2-3.2-1.2V147.6z M238.8,166.6h0.2v-0.5l-0.3,0.4L238.8,166.6z
	 M238.6,166.6v5.1h0.3v-5.1H238.6z M238.6,171.7c0,1.9-0.5,3.1-1.2,3.8c-0.8,0.7-1.8,1-3,1v0.3c1.2,0,2.4-0.3,3.2-1.1
	c0.8-0.8,1.3-2.1,1.3-4H238.6z M234.4,176.4c-1.3,0-2.3-0.4-2.9-1c-0.7-0.6-1-1.4-1-2.4H230c0,1.1,0.4,2,1.1,2.7
	c0.7,0.7,1.8,1.1,3.2,1.1V176.4z M230.4,173c0-0.4-0.1-0.8-0.4-1.1c-0.3-0.3-0.6-0.4-1.1-0.4v0.3c0.4,0,0.7,0.1,0.8,0.3
	c0.2,0.2,0.3,0.5,0.3,0.8H230.4z M228.9,171.6h-1.6v0.3h1.6V171.6z M227.3,171.6c-0.5,0-0.9,0.1-1.2,0.4c-0.3,0.3-0.4,0.7-0.4,1.2
	h0.3c0-0.5,0.1-0.8,0.3-1c0.2-0.2,0.5-0.3,1-0.3V171.6z M225.6,173.2c0,2.1,0.8,4,2.3,5.4c1.5,1.4,3.7,2.2,6.4,2.2v-0.3
	c-2.6,0-4.7-0.8-6.1-2.1c-1.4-1.3-2.2-3.1-2.2-5.1H225.6z M234.4,180.7c2.5,0,4.8-0.7,6.4-2.2c1.6-1.5,2.6-3.7,2.6-6.8H243
	c0,3-0.9,5.1-2.5,6.5c-1.5,1.4-3.7,2.1-6.2,2.1V180.7z M243.3,171.7v-19.4H243v19.4H243.3z M243.3,152.3c0-3-1-5.3-2.6-6.9
	c-1.6-1.5-3.9-2.3-6.4-2.3v0.3c2.5,0,4.6,0.7,6.2,2.2c1.5,1.5,2.5,3.7,2.5,6.6H243.3z M234.4,143.2c-2.5,0-4.8,0.8-6.4,2.3
	c-1.6,1.5-2.6,3.8-2.6,6.9h0.3c0-3,0.9-5.2,2.5-6.6c1.5-1.5,3.7-2.2,6.2-2.2V143.2z M225.4,152.3v8.3h0.3v-8.3H225.4z M225.4,160.6
	c0,2.9,0.8,5.1,2.2,6.6c1.4,1.5,3.3,2.2,5.5,2.2V169c-2.1,0-4-0.7-5.3-2c-1.3-1.4-2.1-3.5-2.1-6.3H225.4z M233.1,169.4
	c2.4,0,4.5-0.8,5.8-2.7l-0.3-0.2c-1.3,1.7-3.2,2.5-5.5,2.5V169.4z M238.6,152.6v7.3h0.3v-7.3H238.6z M238.6,159.9
	c0,1.9-0.5,3.2-1.2,3.9c-0.8,0.8-1.8,1.1-3,1.1v0.3c1.2,0,2.4-0.3,3.2-1.2c0.8-0.9,1.3-2.2,1.3-4.2H238.6z M234.4,164.9
	c-1.2,0-2.2-0.3-3-1.1c-0.8-0.8-1.2-2-1.2-3.9h-0.3c0,2,0.5,3.3,1.3,4.2c0.8,0.9,2,1.2,3.2,1.2V164.9z M230.1,159.9v-7.3h-0.3v7.3
	H230.1z M230.1,152.6c0-1.9,0.5-3.2,1.2-3.9c0.8-0.8,1.8-1.1,3-1.1v-0.3c-1.2,0-2.4,0.3-3.2,1.2c-0.8,0.9-1.3,2.2-1.3,4.2H230.1z
	 M234.4,147.6c1.2,0,2.2,0.3,3,1.1c0.8,0.8,1.2,2,1.2,3.9h0.3c0-2-0.5-3.3-1.3-4.2c-0.8-0.9-2-1.2-3.2-1.2V147.6z M252.7,140.5
	c1.6,0,2.9-1.3,2.9-3h-0.3c0,1.5-1.2,2.6-2.6,2.6V140.5z M255.7,137.5c0-1.6-1.3-2.9-2.9-2.9v0.3c1.4,0,2.6,1.2,2.6,2.6H255.7z
	 M252.7,134.6c-1.6,0-3,1.3-3,2.9h0.3c0-1.4,1.2-2.6,2.6-2.6V134.6z M249.8,137.5c0,1.6,1.3,3,3,3v-0.3c-1.5,0-2.6-1.2-2.6-2.6
	H249.8z M250.3,145.4v24.4h0.3v-24.4H250.3z M250.3,169.8c0,0.5,0.1,0.9,0.4,1.2c0.3,0.3,0.7,0.4,1.2,0.4V171c-0.5,0-0.8-0.1-1-0.3
	c-0.2-0.2-0.3-0.5-0.3-1H250.3z M252,171.4h1.4V171H252V171.4z M253.5,171.4c0.5,0,0.9-0.1,1.2-0.4c0.3-0.3,0.4-0.7,0.4-1.2h-0.3
	c0,0.4-0.1,0.8-0.3,1c-0.2,0.2-0.5,0.3-1,0.3V171.4z M255.1,169.8v-24.4h-0.3v24.4H255.1z M255.1,145.4c0-0.5-0.1-0.9-0.4-1.2
	c-0.3-0.3-0.7-0.4-1.2-0.4v0.3c0.5,0,0.8,0.1,1,0.3c0.2,0.2,0.3,0.5,0.3,1H255.1z M253.5,143.7H252v0.3h1.4V143.7z M252,143.7
	c-0.5,0-0.9,0.1-1.2,0.4c-0.3,0.3-0.4,0.7-0.4,1.2h0.3c0-0.5,0.1-0.8,0.3-1c0.2-0.2,0.5-0.3,1-0.3V143.7z M266.2,158.6v-0.2h-0.2
	v0.2H266.2z M266.2,154.8h-0.2v0.2h0.2V154.8z M275,154.8v0.2h0.2v-0.2H275z M274.6,163.7c0,1.2-0.4,2.1-1.1,2.8
	c-0.7,0.7-1.7,1-2.9,1v0.3c1.3,0,2.3-0.4,3.1-1.1c0.8-0.7,1.2-1.8,1.2-3H274.6z M270.6,167.5c-1.2,0-2.2-0.3-3-1.1s-1.2-2-1.2-3.9
	h-0.3c0,2,0.5,3.3,1.3,4.2c0.8,0.9,2,1.2,3.2,1.2V167.5z M266.4,162.5v-3.9h-0.3v3.9H266.4z M266.2,158.8h11.7v-0.3h-11.7V158.8z
	 M277.9,158.8c0.5,0,0.9-0.1,1.2-0.4c0.3-0.3,0.4-0.7,0.4-1.2h-0.3c0,0.5-0.1,0.8-0.3,1c-0.2,0.2-0.5,0.3-1,0.3V158.8z M279.6,157.2
	v-4.8h-0.3v4.8H279.6z M279.6,152.3c0-3-1-5.3-2.6-6.9c-1.6-1.5-3.9-2.3-6.4-2.3v0.3c2.5,0,4.6,0.7,6.2,2.2c1.5,1.5,2.5,3.7,2.5,6.6
	H279.6z M270.6,143.2c-2.5,0-4.8,0.8-6.4,2.3c-1.6,1.5-2.6,3.8-2.6,6.9h0.3c0-3,0.9-5.2,2.5-6.6c1.5-1.5,3.7-2.2,6.2-2.2V143.2z
	 M261.7,152.3v10.4h0.3v-10.4H261.7z M261.7,162.8c0,3,1,5.3,2.6,6.9c1.6,1.5,3.9,2.3,6.4,2.3v-0.3c-2.5,0-4.6-0.7-6.2-2.2
	c-1.5-1.5-2.5-3.7-2.5-6.6H261.7z M270.6,172c2.6,0,4.8-0.8,6.3-2.2c1.5-1.4,2.4-3.5,2.4-5.9H279c0,2.3-0.9,4.3-2.3,5.6
	c-1.5,1.4-3.6,2.1-6.1,2.1V172z M279.4,163.9c0-0.5-0.1-0.9-0.4-1.2c-0.3-0.3-0.7-0.4-1.2-0.4v0.3c0.5,0,0.8,0.1,1,0.3
	c0.2,0.2,0.3,0.5,0.3,1H279.4z M277.7,162.2h-1.6v0.3h1.6V162.2z M276.1,162.2c-0.4,0-0.8,0.1-1.1,0.4c-0.3,0.3-0.4,0.6-0.4,1.1h0.3
	c0-0.4,0.1-0.7,0.3-0.8c0.2-0.2,0.5-0.3,0.8-0.3V162.2z M266.4,154.8v-2.2h-0.3v2.2H266.4z M266.4,152.6c0-1.9,0.5-3.2,1.2-3.9
	c0.8-0.8,1.8-1.1,3-1.1v-0.3c-1.2,0-2.4,0.3-3.2,1.2c-0.8,0.9-1.3,2.2-1.3,4.2H266.4z M270.6,147.6c1.2,0,2.2,0.3,3,1.1
	c0.8,0.8,1.2,2,1.2,3.9h0.3c0-2-0.5-3.3-1.3-4.2c-0.8-0.9-2-1.2-3.2-1.2V147.6z M274.9,152.6v2.2h0.3v-2.2H274.9z M275,154.6h-8.8
	v0.3h8.8V154.6z M297.1,150.8L297.1,150.8l0.3,0.1v-0.1H297.1z M297.1,150.8c0,0.4,0.1,0.8,0.4,1.1c0.3,0.3,0.6,0.4,1.1,0.4V152
	c-0.4,0-0.7-0.1-0.8-0.3c-0.2-0.2-0.3-0.5-0.3-0.8H297.1z M298.6,152.3h1.6V152h-1.6V152.3z M300.2,152.3c0.5,0,0.9-0.1,1.2-0.4
	c0.3-0.3,0.4-0.7,0.4-1.2h-0.3c0,0.5-0.1,0.8-0.3,1c-0.2,0.2-0.5,0.3-1,0.3V152.3z M301.8,150.6L301.8,150.6l-0.3-0.1v0.1H301.8z
	 M301.8,150.6c0-4.3-3.5-7.4-8.5-7.4v0.3c4.8,0,8.1,3,8.1,7.1H301.8z M293.4,143.2c-2.4,0-4.5,0.7-6,2c-1.5,1.3-2.4,3.3-2.4,5.7h0.3
	c0-2.4,0.8-4.2,2.3-5.5c1.4-1.3,3.4-2,5.8-2V143.2z M285,151c0,2.6,0.8,4.3,2,5.6c1.2,1.3,2.8,2,4.4,2.6c1.6,0.6,3.1,1.1,4.3,1.8
	c0.6,0.4,1,0.8,1.4,1.2c0.3,0.5,0.5,1.1,0.5,1.8h0.3c0-0.8-0.2-1.4-0.6-2c-0.4-0.5-0.9-1-1.5-1.3c-1.2-0.7-2.8-1.2-4.3-1.8
	c-1.6-0.6-3.1-1.4-4.2-2.6c-1.1-1.2-1.9-2.8-1.9-5.3H285z M297.5,164v0.1h0.3V164H297.5z M297.5,164.1c0,1.2-0.4,2.1-1.1,2.6
	c-0.7,0.5-1.7,0.8-2.9,0.8v0.3c1.2,0,2.3-0.2,3.1-0.9c0.8-0.6,1.3-1.6,1.3-2.9H297.5z M293.4,167.5c-1.1,0-2.1-0.3-2.8-0.8
	c-0.7-0.5-1.1-1.4-1.1-2.6h-0.3c0,1.3,0.5,2.2,1.3,2.9c0.8,0.6,1.9,0.9,3.1,0.9V167.5z M289.5,164.1c0-0.4-0.1-0.8-0.4-1.1
	c-0.3-0.3-0.6-0.4-1.1-0.4v0.3c0.4,0,0.7,0.1,0.9,0.3c0.2,0.2,0.3,0.5,0.3,0.8H289.5z M288,162.6h-1.6v0.3h1.6V162.6z M286.4,162.6
	c-0.5,0-0.9,0.1-1.2,0.4c-0.3,0.3-0.4,0.7-0.4,1.2h0.3c0-0.5,0.1-0.8,0.3-1c0.2-0.2,0.5-0.3,1-0.3V162.6z M284.8,164.3v0.3h0.3v-0.3
	H284.8z M284.8,164.5c0,4.4,3.6,7.4,8.7,7.4v-0.3c-4.9,0-8.3-3-8.3-7.1H284.8z M293.4,172c2.5,0,4.7-0.7,6.3-2
	c1.6-1.3,2.5-3.2,2.5-5.7h-0.3c0,2.4-0.9,4.2-2.4,5.4c-1.5,1.2-3.6,1.9-6.1,1.9V172z M302.2,164.3c0-2.6-0.8-4.3-2-5.6
	c-1.2-1.3-2.8-2-4.4-2.7c-1.6-0.6-3.1-1.1-4.3-1.9c-0.6-0.4-1-0.8-1.4-1.3c-0.3-0.5-0.5-1.1-0.5-1.8h-0.3c0,0.8,0.2,1.4,0.6,2
	c0.4,0.5,0.9,1,1.5,1.4c1.2,0.7,2.8,1.3,4.3,1.9c1.6,0.6,3.1,1.4,4.2,2.6c1.1,1.2,1.9,2.9,1.9,5.4H302.2z M289.7,151.1V151h-0.3v0.1
	H289.7z M289.7,151c0-1.1,0.4-2,1-2.5c0.6-0.5,1.6-0.8,2.6-0.8v-0.3c-1.1,0-2.1,0.3-2.9,0.9c-0.7,0.6-1.1,1.6-1.1,2.8H289.7z
	 M293.4,147.6c1.1,0,2,0.3,2.7,0.8c0.6,0.5,1,1.3,1,2.4h0.3c0-1.2-0.4-2.1-1.2-2.7c-0.7-0.6-1.7-0.9-2.9-0.9V147.6z"/>
<path d="M79.8,34.7c-5.6,0-10.2,4.5-10.2,10.2V102c0,5.6,4.5,10.2,10.2,10.2c5.6,0,10.2-4.5,10.2-10.2V44.8
	C90,39.2,85.4,34.7,79.8,34.7z"/>
<path d="M79.8,0C73.3,0,68,5.3,68,11.8c0,6.5,5.3,11.8,11.8,11.8s11.8-5.3,11.8-11.8C91.7,5.3,86.4,0,79.8,0"/>
<path d="M37.1,84.8c0,4.6-3.7,8.4-8.4,8.4c-4.6,0-8.4-3.7-8.4-8.4V62.1c0-4.6,3.7-8.4,8.4-8.4c4.6,0,8.4,3.7,8.4,8.4V84.8z
	 M57.4,10.3c0-5.6-4.5-10.2-10.2-10.2S37.1,4.7,37.1,10.3v26.1c-3.1-1.2-6.4-1.8-9.7-1.8C12.3,34.7,0,46.9,0,62v21.5
	c-0.6,15.8,11.8,29.1,27.6,29.6c15.8,0.6,29.1-11.8,29.6-27.6c0-0.7,0-1.3,0-2L57.4,10.3L57.4,10.3z"/>
<path d="M246.6,91.9h-8.9c-3.9,0-7.1-3.2-7.1-7.1V62c0-3.9,3.2-7.1,7.1-7.1h8.9c5.5,0,9.9-4.4,9.9-9.9s-4.4-9.9-9.9-9.9H237
	c-14.8,0-26.7,12-26.7,26.7V85c0,14.8,12,26.7,26.7,26.7h9.5c5.5,0,9.9-4.4,9.9-9.9C256.5,96.3,252,91.9,246.6,91.9"/>
<path d="M301.7,54.9c5.5,0,9.9-4.4,9.9-9.9c0-5.5-4.4-9.9-9.9-9.9h-14.6V16.8c0-5.6-4.5-10.2-10.2-10.2c-5.6,0-10.2,4.5-10.2,10.2
	v68.3c0,14.8,12,26.7,26.7,26.7h8.2c5.5,0,9.9-4.4,9.9-9.9c0-5.5-4.4-9.9-9.9-9.9h-7.6c-3.9,0-7.1-3.2-7.1-7.1v-30H301.7L301.7,54.9
	z"/>
<path d="M133.3,54.9c5.5,0,9.9-4.4,9.9-9.9s-4.4-9.9-9.9-9.9H129c-14.8,0-26.7,12-26.7,26.8V102c0,5.6,4.5,10.2,10.2,10.2
	s10.2-4.5,10.2-10.2V62c0-3.9,3.2-7.1,7.1-7.1L133.3,54.9L133.3,54.9z"/>
<path d="M166.9,52.7c-1-4.9,2.3-9.7,7.3-10.7h0.2c5-1,10,2.2,11.1,7.2c1,4.9-2.2,9.7-7.2,10.6c-0.1,0-0.2,0-0.2,0.1
	C173,60.9,168,57.7,166.9,52.7L166.9,52.7z M203.9,90.2c-1-5.4-6.2-8.9-11.6-7.9c-0.3,0.1-0.6,0.1-0.9,0.2c-2.9,1-5.9,1.6-8.9,1.8
	c-5.3,0.5-10-3.2-10.9-8.5c-0.2-1-0.2-2,0-2.9c4.5,1.7,9.4,2,14,0.8c12.7-3.5,20.2-16.6,16.7-29.3l-0.1-0.2
	C198.9,30.6,186.2,22.1,171,25c-12.3,2.3-21.6,12.4-22.9,24.8c-0.5,7,0,13.9,1.4,20.7c0.9,7.4,3.2,14.6,6.8,21.1
	c5.2,8.1,14.1,13.1,23.7,13.5c6.2,0.5,12.4-0.8,18-3.6c4.1-2.1,6.5-6.7,5.7-11.3"/>
</svg>
